<?xml version="1.0" encoding="UTF-8"?>
<svg id="Layer_2" xmlns="http://www.w3.org/2000/svg" viewBox="0 0 119.34 159.45">
  <defs>
    <style>
      .cls-1 {
        fill: #fff;
      }

      .cls-2 {
        fill: #dc5a50;
      }
    </style>
  </defs>
  <g id="Layer_1-2" data-name="Layer_1">
    <g>
      <path class="cls-1" d="M114.55,58.74l-23.7-6.35-7.74,7.74,25.5,6.83c2.37-2.53,4.35-5.3,5.94-8.23Z"/>
      <polygon class="cls-1" points="99.33 76.3 73.79 69.45 67.64 75.61 93.18 82.45 99.33 76.3"/>
      <polygon class="cls-1" points="83.86 91.77 58.32 84.92 50.77 92.48 76.31 99.32 83.86 91.77"/>
      <polygon class="cls-1" points="66.99 108.64 41.45 101.8 35.72 107.53 61.26 114.37 66.99 108.64"/>
      <path class="cls-1" d="M107.69,11.65h0c-1.29-1.29-2.66-2.47-4.07-3.54l-16.25,16.81c1.46.77,2.83,1.77,4.05,2.99h0c1.05,1.05,1.92,2.22,2.63,3.44l17.26-15.53c-1.1-1.45-2.3-2.85-3.63-4.18Z"/>
      <path class="cls-1" d="M33.14,29.92c-2.04,2.04-3.14,4.67-3.32,7.34l22.37,5.99,6.8-6.8-25.54-6.84-.3.3Z"/>
      <path class="cls-1" d="M42.77,20.3l25.6,6.86c2.56-2.24,5.62-3.58,8.8-4.01l-26.34-10.9-8.06,8.06Z"/>
      <path class="cls-1" d="M73.86.4l4.69,22.61c3.01-.17,6.06.45,8.8,1.89L84.9.36c-3.66-.49-7.38-.48-11.04.04Z"/>
      <path class="cls-1" d="M119.09,35.32l-23.1,1c.68,3.18.44,6.52-.74,9.58l23.57.31c.59-3.6.67-7.27.27-10.89Z"/>
      <path class="cls-1" d="M1.22,142.85c-.71,1.41-1.1,2.93-1.2,4.46l1.2-4.46Z"/>
      <polygon class="cls-1" points="37.45 138.18 33.73 137.19 11.91 131.34 4.26 138.98 29.8 145.83 37.45 138.18"/>
      <polygon class="cls-1" points="46.41 128.77 46.41 128.77 46.76 128.87 51.94 123.69 26.4 116.84 21.22 122.02 22.42 122.34 46.41 128.77"/>
      <path class="cls-2" d="M3.34,156.1c4.47,4.47,11.72,4.47,16.19,0l10.27-10.27-25.54-6.84-.92.92c-.89.89-1.59,1.88-2.12,2.95L.02,147.32c-.19,3.15.91,6.37,3.32,8.78Z"/>
      <polygon class="cls-2" points="33.73 137.19 37.45 138.18 37.45 138.18 33.73 137.19"/>
      <polygon class="cls-2" points="46.41 128.77 22.42 122.34 46.41 128.77 46.41 128.77"/>
      <polygon class="cls-2" points="46.25 129.38 46.76 128.87 46.41 128.77 46.25 129.38"/>
      <polygon class="cls-2" points="11.91 131.34 11.91 131.34 33.73 137.19 11.91 131.34"/>
      <polygon class="cls-2" points="22.42 122.34 21.22 122.02 21.22 122.02 22.42 122.34"/>
      <polygon class="cls-2" points="46.25 129.38 46.41 128.77 22.42 122.34 21.22 122.02 11.91 131.34 33.73 137.19 37.45 138.18 46.25 129.38"/>
      <polygon class="cls-2" points="61.26 114.37 35.72 107.53 26.4 116.84 51.94 123.69 61.26 114.37"/>
      <polygon class="cls-2" points="76.31 99.32 50.77 92.48 41.45 101.8 66.99 108.64 76.31 99.32"/>
      <polygon class="cls-2" points="93.18 82.45 67.64 75.61 58.32 84.92 83.86 91.77 93.18 82.45"/>
      <path class="cls-2" d="M107.69,67.94c.32-.32.62-.64.92-.97l-25.5-6.83-9.32,9.32,25.54,6.84,8.36-8.36Z"/>
      <path class="cls-2" d="M118.82,46.21l-23.57-.31c-.82,2.16-2.09,4.18-3.83,5.92l-.58.58,23.7,6.35c2.14-3.96,3.57-8.2,4.27-12.53Z"/>
      <path class="cls-2" d="M111.32,15.83l-17.26,15.53c.91,1.56,1.56,3.23,1.93,4.96l23.1-1c-.78-6.92-3.37-13.67-7.77-19.49Z"/>
      <path class="cls-2" d="M87.35,24.95l.03-.03s-.02-.01-.03-.02v.05Z"/>
      <path class="cls-2" d="M84.9.36l2.44,24.54s.02.01.03.02l16.25-16.81c-5.6-4.27-12.07-6.85-18.72-7.75Z"/>
      <path class="cls-2" d="M51.41,11.65l-.59.59,26.34,10.9c.46-.06.92-.11,1.38-.13L73.86.4c-8.22,1.18-16.13,4.93-22.45,11.25Z"/>
      <path class="cls-2" d="M33.45,29.62l25.54,6.84,8.54-8.54c.27-.27.56-.51.84-.76l-25.6-6.86-9.32,9.32Z"/>
      <path class="cls-2" d="M33.14,46.11c4.47,4.47,11.72,4.47,16.19,0l2.86-2.86-22.37-5.99c-.21,3.18.89,6.42,3.32,8.85Z"/>
    </g>
  </g>
</svg>