<?xml version="1.0" encoding="UTF-8"?>
<svg id="Layer_2" xmlns="http://www.w3.org/2000/svg" viewBox="0 0 147.33 197.84">
  <defs>
    <style>
      .cls-1 {
        fill: #1a9b08;
      }
    </style>
  </defs>
  <g id="Layer_1-2" data-name="Layer_1">
    <g>
      <path class="cls-1" d="M35.55,123.29c-5.22-1.63-10.24-3.13-15.21-4.77-3.02-1-5.99-2.15-8.94-3.34-3.5-1.41-3.7-2.71-.91-5.16,11.32-9.93,21.49-20.94,30.74-32.81.66-.85,1.29-1.73,2.1-2.82-4.09-1.33-7.95-2.56-11.79-3.86-1.89-.64-3.75-1.38-5.59-2.15-3.01-1.26-3.08-2.37-.8-4.71,7.03-7.23,14.3-14.27,20.85-21.92,10.05-11.72,17.91-24.94,24.89-38.69.6-1.18,1.79-2.05,2.7-3.07.98,1.06,2.26,1.96,2.89,3.2,11.54,22.9,26.3,43.35,45.56,60.42,2.57,2.28,2.37,3.65-.87,4.84-5.11,1.88-10.31,3.53-15.47,5.29-.49.17-.96.37-1.91.74,3.94,4.78,7.45,9.53,11.48,13.79,6.93,7.33,14.12,14.42,21.31,21.5,2.97,2.93,2.97,4.09-.88,5.44-7.2,2.52-14.46,4.84-21.7,7.24-.67.22-1.35.44-2.31.75.71.95,1.26,1.74,1.87,2.49,9.62,11.92,20.12,23,31.63,33.12,3.03,2.67,2.87,3.81-.83,5.3-47.22,18.94-94.43,18.99-141.62-.08-3.47-1.4-3.62-2.61-.71-5.16,11.52-10.1,22-21.2,31.65-33.09.61-.76,1.17-1.56,1.85-2.48Z"/>
      <path class="cls-1" d="M91.72,182.12c0,4.54.12,8.99-.11,13.41-.04.8-1.5,2.18-2.32,2.2-10.44.15-20.89.14-31.34,0-.79-.01-2.21-1.27-2.24-1.99-.21-4.51-.1-9.04-.1-13.62h36.11Z"/>
    </g>
  </g>
</svg>