<?xml version="1.0" encoding="UTF-8"?>
<svg id="Layer_2" xmlns="http://www.w3.org/2000/svg" viewBox="0 0 513.79 511.59">
  <defs>
    <style>
      .cls-1 {
        fill: #f7931e;
      }
    </style>
  </defs>
  <g id="Layer_1-2" data-name="Layer_1">
    <path class="cls-1" d="M241.21,104.01c4.18-35.1.66-67.69-25.95-94.47,5.66-3.6,10.13-6.81,14.97-9.3,1.36-.7,4.12.23,5.72,1.24,22.48,14.21,39.37,33.33,49.31,58.08,5.64,14.05,10.67,28.36,15.46,42.72,1.38,4.14,3.17,4.97,7.12,4.44,19.65-2.61,39.22-5.18,59.24-4.04,68.27,3.91,117.46,42.03,135.85,107.88,11.8,42.23,13.81,85.45,6.84,128.83-3.86,24.07-13.78,45.86-27.6,65.87-16.11,23.31-34.68,44.52-57.05,61.92-26.74,20.79-57.79,31.83-90.92,37.85-37.01,6.73-74.25,8.1-111.58,4.88-39.78-3.44-78.62-11.27-113.63-31.81-23.1-13.56-44.15-29.85-62.22-49.8-26.26-28.99-40.05-63.73-44.44-101.91-3.79-33.02-3.24-66.31,3.62-99.05,12.93-61.69,49.6-102.47,109.82-121.24,22.5-7.01,46.04-7.29,69.42-6.29,15.64.67,31.23,2.41,46.84,3.64,2.96.23,5.94.36,9.18.55ZM89.48,340.01c-.6.43-1.21.86-1.81,1.29,5.25,9.33,9.82,19.13,15.86,27.92,30.27,44.12,73.92,65.03,125.76,71.41,2.83.35,3.23-1.06,3.81-3.26,2.12-8.04,4.58-15.99,6.69-24.04.73-2.78,2.17-3.72,4.92-3.7,8.16.05,16.33-.22,24.49.01,1.42.04,3.55,1.69,4.04,3.06,2.8,7.83,5.41,15.75,7.64,23.77.92,3.32,2.43,4.43,5.63,3.76,11.23-2.35,22.66-4,33.68-7.12,40.83-11.54,72.87-35.08,94.89-71.62,3.89-6.45,6.86-13.46,10.25-20.21-1.75-.5-2.54-.36-3.18.02-19.33,11.52-40.15,19.33-61.86,25-1.48.39-2.98,2.41-3.61,4.01-2.75,6.96-4.8,14.21-7.9,21-1.33,2.91-4.29,6.55-7.04,7.08-10.04,1.93-20.3,2.7-30.91,3.95,0-2.63-.02-4.24,0-5.84.09-5.16.22-10.31.29-15.47.06-4.38-1.64-6.13-6.43-5.53-7.42.93-14.95,1.5-22.43,1.46-23.15-.11-46.29-.57-69.44-.89-6.59-.09-6.76.03-6.85,6.55-.09,6.25-.02,12.51-.02,19.43-8.79-1.11-17.02-2.25-25.27-3.16-6.72-.74-10.89-4.4-13.19-10.55-.52-1.4-1.27-2.72-1.81-4.11-2.16-5.52-2.87-12.65-6.81-16.15-4-3.56-11.23-3.36-16.95-5.12-18.33-5.64-36.18-12.44-52.42-22.95ZM301.02,258.45l.65,1.22c3.41.67,6.81,1.44,10.24,2,21.59,3.47,43.25,6.11,65.16,3.47,13.58-1.64,21.75-10.69,22.5-24.36.9-16.37-2.46-31.79-10-46.32-1.48-2.85-2.9-5.74-4.68-9.28-24.94,28.88-51.65,54.22-83.87,73.28ZM127.04,185.21c-9.16,17.33-15.93,34.19-15.17,53.39.58,14.6,9.3,24.76,23.87,26.61,19.87,2.52,39.53.34,59.14-2.69,4.94-.76,9.85-1.69,14.77-2.54l.55-1.67c-31.97-19.28-58.65-44.54-83.15-73.09ZM223.41,331.19c.27.39.55.77.82,1.16,21.74-5.6,43.5-5.36,65.95-1.11-10.97-16.43-21.93-32.86-33.41-50.07-11.62,17.43-22.49,33.72-33.36,50.02Z"/>
  </g>
</svg>