<?xml version="1.0" encoding="UTF-8"?>
<svg id="Layer_2" data-name="Layer 2" xmlns="http://www.w3.org/2000/svg" viewBox="0 0 191.51 174.81">
  <defs>
    <style>
      .cls-1 {
        fill: #ff60bc;
      }
    </style>
  </defs>
  <g id="Layer_1-2" data-name="Layer 1">
    <path class="cls-1" d="M95.61,27.92l.37-.11C104.62,13.13,119.84,1.76,137.16.22c28.8-2.56,53.01,17.86,54.25,46.9,1.05,24.7-5.94,43.73-22.61,61.58-15.06,16.12-33.61,30.4-50.13,45.12-7.71,6.87-15.28,13.91-22.81,20.99-7.12-6.5-14.14-13.13-21.33-19.56-16.99-15.19-36.14-29.9-51.66-46.46C5.65,90.41-1.22,70.76.18,45.35,1.94,13.29,34.49-7.13,64.65,2.32c13.01,4.07,24.18,13.93,30.96,25.6Z"/>
  </g>
</svg>